<svg xmlns="http://www.w3.org/2000/svg" xmlns:xlink="http://www.w3.org/1999/xlink" width="192" zoomAndPan="magnify" viewBox="0 0 144 143.999998" height="192" preserveAspectRatio="xMidYMid meet" version="1.0"><defs><clipPath id="0f0008ec0f"><path d="M 0 0 L 144 0 L 144 144 L 0 144 Z M 0 0 " clip-rule="nonzero"/></clipPath><clipPath id="e044e1d7e0"><rect x="0" width="144" y="0" height="144"/></clipPath></defs><rect x="-14.4" width="172.8" fill="#ffffff" y="-14.4" height="172.799997" fill-opacity="1"/><rect x="-14.4" width="172.8" fill="#ffffff" y="-14.4" height="172.799997" fill-opacity="1"/><g transform="matrix(1, 0, 0, 1, 0, -0.000000000000008916)"><g clip-path="url(#e044e1d7e0)"><g clip-path="url(#0f0008ec0f)"><rect x="-31.68" width="207.36" fill="#ffffff" height="207.359996" y="-31.679999" fill-opacity="1"/></g><path stroke-linecap="butt" transform="matrix(4.363636, 0, 0, 4.363636, 0.00000125, 0.000002)" fill-opacity="1" fill="#ffffff" fill-rule="nonzero" stroke-linejoin="miter" d="M 1.999837 2.500244 L 9.000163 2.500244 M 11 2.500244 L 11.999919 2.500244 M 12.999838 2.500244 L 13.999757 2.500244 M 14.999675 2.500244 L 15.999594 2.500244 M 18.000326 2.500244 L 22.99992 2.500244 M 23.999839 2.500244 L 31.000165 2.500244 M 1.999837 3.500163 L 2.999756 3.500163 M 8.000244 3.500163 L 9.000163 3.500163 M 11 3.500163 L 12.999838 3.500163 M 17.000408 3.500163 L 18.000326 3.500163 M 22.000001 3.500163 L 22.99992 3.500163 M 23.999839 3.500163 L 24.999757 3.500163 M 30.000246 3.500163 L 31.000165 3.500163 M 1.999837 4.500081 L 2.999756 4.500081 M 3.999674 4.500081 L 7.000326 4.500081 M 8.000244 4.500081 L 9.000163 4.500081 M 10.000082 4.500081 L 11 4.500081 M 11.999919 4.500081 L 13.999757 4.500081 M 20.000164 4.500081 L 22.99992 4.500081 M 23.999839 4.500081 L 24.999757 4.500081 M 25.999676 4.500081 L 29.000327 4.500081 M 30.000246 4.500081 L 31.000165 4.500081 M 1.999837 5.5 L 2.999756 5.5 M 3.999674 5.5 L 7.000326 5.5 M 8.000244 5.5 L 9.000163 5.5 M 10.000082 5.5 L 11.999919 5.5 M 13.999757 5.5 L 15.999594 5.5 M 17.000408 5.5 L 21.000083 5.5 M 23.999839 5.5 L 24.999757 5.5 M 25.999676 5.5 L 29.000327 5.5 M 30.000246 5.5 L 31.000165 5.5 M 1.999837 6.499919 L 2.999756 6.499919 M 3.999674 6.499919 L 7.000326 6.499919 M 8.000244 6.499919 L 9.000163 6.499919 M 10.000082 6.499919 L 17.000408 6.499919 M 19.000245 6.499919 L 22.99992 6.499919 M 23.999839 6.499919 L 24.999757 6.499919 M 25.999676 6.499919 L 29.000327 6.499919 M 30.000246 6.499919 L 31.000165 6.499919 M 1.999837 7.499837 L 2.999756 7.499837 M 8.000244 7.499837 L 9.000163 7.499837 M 10.000082 7.499837 L 12.999838 7.499837 M 17.000408 7.499837 L 18.000326 7.499837 M 19.000245 7.499837 L 20.000164 7.499837 M 23.999839 7.499837 L 24.999757 7.499837 M 30.000246 7.499837 L 31.000165 7.499837 M 1.999837 8.499756 L 9.000163 8.499756 M 10.000082 8.499756 L 11 8.499756 M 11.999919 8.499756 L 12.999838 8.499756 M 13.999757 8.499756 L 14.999675 8.499756 M 15.999594 8.499756 L 17.000408 8.499756 M 18.000326 8.499756 L 19.000245 8.499756 M 20.000164 8.499756 L 21.000083 8.499756 M 22.000001 8.499756 L 22.99992 8.499756 M 23.999839 8.499756 L 31.000165 8.499756 M 10.000082 9.499675 L 11.999919 9.499675 M 13.999757 9.499675 L 14.999675 9.499675 M 17.000408 9.499675 L 18.000326 9.499675 M 21.000083 9.499675 L 22.99992 9.499675 M 1.999837 10.499593 L 2.999756 10.499593 M 3.999674 10.499593 L 9.000163 10.499593 M 11.999919 10.499593 L 17.000408 10.499593 M 19.000245 10.499593 L 20.000164 10.499593 M 21.000083 10.499593 L 22.000001 10.499593 M 23.999839 10.499593 L 29.000327 10.499593 M 2.999756 11.500407 L 3.999674 11.500407 M 4.999593 11.500407 L 6.000407 11.500407 M 7.000326 11.500407 L 8.000244 11.500407 M 9.000163 11.500407 L 10.000082 11.500407 M 17.000408 11.500407 L 22.000001 11.500407 M 22.99992 11.500407 L 24.999757 11.500407 M 25.999676 11.500407 L 26.999595 11.500407 M 30.000246 11.500407 L 31.000165 11.500407 M 4.999593 12.500326 L 7.000326 12.500326 M 8.000244 12.500326 L 10.000082 12.500326 M 11 12.500326 L 11.999919 12.500326 M 13.999757 12.500326 L 18.000326 12.500326 M 20.000164 12.500326 L 21.000083 12.500326 M 22.000001 12.500326 L 22.99992 12.500326 M 23.999839 12.500326 L 25.999676 12.500326 M 1.999837 13.500245 L 4.999593 13.500245 M 6.000407 13.500245 L 8.000244 13.500245 M 9.000163 13.500245 L 12.999838 13.500245 M 13.999757 13.500245 L 14.999675 13.500245 M 17.000408 13.500245 L 19.000245 13.500245 M 20.000164 13.500245 L 24.999757 13.500245 M 25.999676 13.500245 L 28.000409 13.500245 M 29.000327 13.500245 L 30.000246 13.500245 M 1.999837 14.500163 L 2.999756 14.500163 M 6.000407 14.500163 L 7.000326 14.500163 M 8.000244 14.500163 L 10.000082 14.500163 M 11 14.500163 L 12.999838 14.500163 M 14.999675 14.500163 L 18.000326 14.500163 M 19.000245 14.500163 L 22.000001 14.500163 M 24.999757 14.500163 L 25.999676 14.500163 M 26.999595 14.500163 L 29.000327 14.500163 M 2.999756 15.500082 L 4.999593 15.500082 M 9.000163 15.500082 L 10.000082 15.500082 M 12.999838 15.500082 L 13.999757 15.500082 M 14.999675 15.500082 L 15.999594 15.500082 M 18.000326 15.500082 L 19.000245 15.500082 M 21.000083 15.500082 L 26.999595 15.500082 M 30.000246 15.500082 L 31.000165 15.500082 M 2.999756 16.500001 L 4.999593 16.500001 M 6.000407 16.500001 L 11 16.500001 M 13.999757 16.500001 L 18.000326 16.500001 M 22.000001 16.500001 L 23.999839 16.500001 M 25.999676 16.500001 L 29.000327 16.500001 M 2.999756 17.499919 L 4.999593 17.499919 M 6.000407 17.499919 L 8.000244 17.499919 M 9.000163 17.499919 L 11 17.499919 M 11.999919 17.499919 L 12.999838 17.499919 M 15.999594 17.499919 L 18.000326 17.499919 M 21.000083 17.499919 L 22.99992 17.499919 M 25.999676 17.499919 L 26.999595 17.499919 M 29.000327 17.499919 L 30.000246 17.499919 M 2.999756 18.499838 L 7.000326 18.499838 M 8.000244 18.499838 L 10.000082 18.499838 M 11 18.499838 L 11.999919 18.499838 M 13.999757 18.499838 L 15.999594 18.499838 M 17.000408 18.499838 L 19.000245 18.499838 M 21.000083 18.499838 L 22.000001 18.499838 M 24.999757 18.499838 L 25.999676 18.499838 M 26.999595 18.499838 L 29.000327 18.499838 M 1.999837 19.499757 L 2.999756 19.499757 M 3.999674 19.499757 L 6.000407 19.499757 M 7.000326 19.499757 L 8.000244 19.499757 M 9.000163 19.499757 L 11 19.499757 M 13.999757 19.499757 L 14.999675 19.499757 M 15.999594 19.499757 L 17.000408 19.499757 M 18.000326 19.499757 L 22.99992 19.499757 M 23.999839 19.499757 L 26.999595 19.499757 M 28.000409 19.499757 L 29.000327 19.499757 M 30.000246 19.499757 L 31.000165 19.499757 M 1.999837 20.499675 L 2.999756 20.499675 M 4.999593 20.499675 L 7.000326 20.499675 M 8.000244 20.499675 L 11 20.499675 M 12.999838 20.499675 L 19.000245 20.499675 M 22.000001 20.499675 L 23.999839 20.499675 M 24.999757 20.499675 L 26.999595 20.499675 M 28.000409 20.499675 L 29.000327 20.499675 M 1.999837 21.499594 L 2.999756 21.499594 M 3.999674 21.499594 L 7.000326 21.499594 M 9.000163 21.499594 L 10.000082 21.499594 M 11 21.499594 L 13.999757 21.499594 M 15.999594 21.499594 L 17.000408 21.499594 M 21.000083 21.499594 L 23.999839 21.499594 M 25.999676 21.499594 L 26.999595 21.499594 M 29.000327 21.499594 L 30.000246 21.499594 M 1.999837 22.500408 L 2.999756 22.500408 M 6.000407 22.500408 L 11 22.500408 M 12.999838 22.500408 L 13.999757 22.500408 M 17.000408 22.500408 L 19.000245 22.500408 M 22.000001 22.500408 L 26.999595 22.500408 M 28.000409 22.500408 L 31.000165 22.500408 M 10.000082 23.500327 L 11 23.500327 M 14.999675 23.500327 L 15.999594 23.500327 M 22.000001 23.500327 L 22.99992 23.500327 M 25.999676 23.500327 L 31.000165 23.500327 M 1.999837 24.500245 L 9.000163 24.500245 M 12.999838 24.500245 L 13.999757 24.500245 M 14.999675 24.500245 L 20.000164 24.500245 M 21.000083 24.500245 L 22.99992 24.500245 M 23.999839 24.500245 L 24.999757 24.500245 M 25.999676 24.500245 L 29.000327 24.500245 M 1.999837 25.500164 L 2.999756 25.500164 M 8.000244 25.500164 L 9.000163 25.500164 M 10.000082 25.500164 L 11.999919 25.500164 M 12.999838 25.500164 L 15.999594 25.500164 M 17.000408 25.500164 L 18.000326 25.500164 M 20.000164 25.500164 L 22.99992 25.500164 M 25.999676 25.500164 L 26.999595 25.500164 M 1.999837 26.500083 L 2.999756 26.500083 M 3.999674 26.500083 L 7.000326 26.500083 M 8.000244 26.500083 L 9.000163 26.500083 M 10.000082 26.500083 L 11 26.500083 M 12.999838 26.500083 L 14.999675 26.500083 M 15.999594 26.500083 L 17.000408 26.500083 M 18.000326 26.500083 L 19.000245 26.500083 M 22.000001 26.500083 L 26.999595 26.500083 M 28.000409 26.500083 L 31.000165 26.500083 M 1.999837 27.500001 L 2.999756 27.500001 M 3.999674 27.500001 L 7.000326 27.500001 M 8.000244 27.500001 L 9.000163 27.500001 M 10.000082 27.500001 L 12.999838 27.500001 M 13.999757 27.500001 L 15.999594 27.500001 M 22.000001 27.500001 L 22.99992 27.500001 M 26.999595 27.500001 L 31.000165 27.500001 M 1.999837 28.49992 L 2.999756 28.49992 M 3.999674 28.49992 L 7.000326 28.49992 M 8.000244 28.49992 L 9.000163 28.49992 M 10.000082 28.49992 L 13.999757 28.49992 M 15.999594 28.49992 L 20.000164 28.49992 M 21.000083 28.49992 L 22.99992 28.49992 M 23.999839 28.49992 L 30.000246 28.49992 M 1.999837 29.499839 L 2.999756 29.499839 M 8.000244 29.499839 L 9.000163 29.499839 M 11 29.499839 L 11.999919 29.499839 M 15.999594 29.499839 L 18.000326 29.499839 M 20.000164 29.499839 L 21.000083 29.499839 M 22.000001 29.499839 L 23.999839 29.499839 M 24.999757 29.499839 L 28.000409 29.499839 M 29.000327 29.499839 L 30.000246 29.499839 M 1.999837 30.499758 L 9.000163 30.499758 M 10.000082 30.499758 L 11 30.499758 M 11.999919 30.499758 L 13.999757 30.499758 M 14.999675 30.499758 L 15.999594 30.499758 M 17.000408 30.499758 L 18.000326 30.499758 M 22.99992 30.499758 L 23.999839 30.499758 M 24.999757 30.499758 L 25.999676 30.499758 M 28.000409 30.499758 L 29.000327 30.499758 " stroke="#daab96" stroke-width="1" stroke-opacity="1" stroke-miterlimit="4"/></g></g></svg>